<svg id="Layer_1" data-name="Layer 1" xmlns="http://www.w3.org/2000/svg" viewBox="0 0 353.42 376.07"><defs><style>.cls-1,.cls-3{fill:#fff;}.cls-1{stroke:#231f20;}.cls-1,.cls-2,.cls-3{stroke-miterlimit:10;stroke-width:4px;}.cls-2{fill:#ffde17;}.cls-2,.cls-3{stroke:#ffde17;}</style></defs><title>SVGTest2</title><polygon class="cls-1" points="35.01 2 13.21 2 2.31 20.88 13.21 39.76 35.01 39.76 45.91 20.88 35.01 2"/><polygon class="cls-1" points="78.61 2 56.81 2 45.91 20.88 56.81 39.76 78.61 39.76 89.51 20.88 78.61 2"/><polygon class="cls-1" points="122.21 2 100.41 2 89.51 20.88 100.41 39.76 122.21 39.76 133.11 20.88 122.21 2"/><polygon class="cls-1" points="165.81 2 144.01 2 133.11 20.88 144.01 39.76 165.81 39.76 176.71 20.88 165.81 2"/><polygon class="cls-1" points="209.41 2 187.61 2 176.71 20.88 187.61 39.76 209.41 39.76 220.31 20.88 209.41 2"/><polygon class="cls-1" points="253.01 2 231.21 2 220.31 20.88 231.21 39.76 253.01 39.76 263.91 20.88 253.01 2"/><polygon class="cls-1" points="296.61 2 274.81 2 263.91 20.88 274.81 39.76 296.61 39.76 307.51 20.88 296.61 2"/><polygon class="cls-1" points="340.21 2 318.41 2 307.51 20.88 318.41 39.76 340.21 39.76 351.11 20.88 340.21 2"/><polygon class="cls-1" points="35.01 49.76 13.21 49.76 2.31 68.64 13.21 87.52 35.01 87.52 45.91 68.64 35.01 49.76"/><polygon class="cls-1" points="78.61 49.76 56.81 49.76 45.91 68.64 56.81 87.52 78.61 87.52 89.51 68.64 78.61 49.76"/><polygon class="cls-1" points="122.21 49.76 100.41 49.76 89.51 68.64 100.41 87.52 122.21 87.52 133.11 68.64 122.21 49.76"/><polygon class="cls-1" points="165.81 49.76 144.01 49.76 133.11 68.64 144.01 87.52 165.81 87.52 176.71 68.64 165.81 49.76"/><polygon class="cls-1" points="209.41 49.76 187.61 49.76 176.71 68.64 187.61 87.52 209.41 87.52 220.31 68.64 209.41 49.76"/><polygon class="cls-1" points="253.01 49.76 231.21 49.76 220.31 68.64 231.21 87.52 253.01 87.52 263.91 68.64 253.01 49.76"/><polygon class="cls-1" points="296.61 49.76 274.81 49.76 263.91 68.64 274.81 87.52 296.61 87.52 307.51 68.64 296.61 49.76"/><polygon class="cls-1" points="340.21 49.76 318.41 49.76 307.51 68.64 318.41 87.52 340.21 87.52 351.11 68.64 340.21 49.76"/><polygon class="cls-1" points="35.01 97.52 13.21 97.52 2.31 116.4 13.21 135.28 35.01 135.28 45.91 116.4 35.01 97.52"/><polygon class="cls-1" points="78.61 97.52 56.81 97.52 45.91 116.4 56.81 135.28 78.61 135.28 89.51 116.4 78.61 97.52"/><polygon class="cls-1" points="122.21 97.52 100.41 97.52 89.51 116.4 100.41 135.28 122.21 135.28 133.11 116.4 122.21 97.52"/><polygon class="cls-2" points="165.81 97.52 144.01 97.52 133.11 116.4 144.01 135.28 165.81 135.28 176.71 116.4 165.81 97.52"/><polygon class="cls-2" points="209.41 97.52 187.61 97.52 176.71 116.4 187.61 135.28 209.41 135.28 220.31 116.4 209.41 97.52"/><polygon class="cls-1" points="253.01 97.52 231.21 97.52 220.31 116.4 231.21 135.28 253.01 135.28 263.91 116.4 253.01 97.52"/><polygon class="cls-1" points="296.61 97.52 274.81 97.52 263.91 116.4 274.81 135.28 296.61 135.28 307.51 116.4 296.61 97.52"/><polygon class="cls-1" points="340.21 97.52 318.41 97.52 307.51 116.4 318.41 135.28 340.21 135.28 351.11 116.4 340.21 97.52"/><polygon class="cls-1" points="35.01 145.28 13.21 145.28 2.31 164.15 13.21 183.03 35.01 183.03 45.91 164.15 35.01 145.28"/><polygon class="cls-1" points="78.61 145.28 56.81 145.28 45.91 164.15 56.81 183.03 78.61 183.03 89.51 164.15 78.61 145.28"/><polygon class="cls-1" points="122.21 145.28 100.41 145.28 89.51 164.15 100.41 183.03 122.21 183.03 133.11 164.15 122.21 145.28"/><polygon class="cls-1" points="165.81 145.28 144.01 145.28 133.11 164.15 144.01 183.03 165.81 183.03 176.71 164.15 165.81 145.28"/><polygon class="cls-2" points="209.41 145.28 187.61 145.28 176.71 164.15 187.61 183.03 209.41 183.03 220.31 164.15 209.41 145.28"/><polygon class="cls-1" points="253.01 145.28 231.21 145.28 220.31 164.15 231.21 183.03 253.01 183.03 263.91 164.15 253.01 145.28"/><polygon class="cls-1" points="296.61 145.28 274.81 145.28 263.91 164.15 274.81 183.03 296.61 183.03 307.51 164.15 296.61 145.28"/><polygon class="cls-1" points="340.21 145.28 318.41 145.28 307.51 164.15 318.41 183.03 340.21 183.03 351.11 164.15 340.21 145.28"/><polygon class="cls-1" points="35.01 193.03 13.21 193.03 2.31 211.91 13.21 230.79 35.01 230.79 45.91 211.91 35.01 193.03"/><polygon class="cls-1" points="78.61 193.03 56.81 193.03 45.91 211.91 56.81 230.79 78.61 230.79 89.51 211.91 78.61 193.03"/><polygon class="cls-1" points="122.21 193.03 100.41 193.03 89.51 211.91 100.41 230.79 122.21 230.79 133.11 211.91 122.21 193.03"/><polygon class="cls-3" points="165.81 193.03 144.01 193.03 133.11 211.91 144.01 230.79 165.81 230.79 176.71 211.91 165.81 193.03"/><polygon class="cls-1" points="209.41 193.03 187.61 193.03 176.71 211.91 187.61 230.79 209.41 230.79 220.31 211.91 209.41 193.03"/><polygon class="cls-1" points="253.01 193.03 231.21 193.03 220.31 211.91 231.21 230.79 253.01 230.79 263.91 211.91 253.01 193.03"/><polygon class="cls-1" points="296.61 193.03 274.81 193.03 263.91 211.91 274.81 230.79 296.61 230.79 307.51 211.91 296.61 193.03"/><polygon class="cls-1" points="340.21 193.03 318.41 193.03 307.51 211.91 318.41 230.79 340.21 230.79 351.11 211.91 340.21 193.03"/><polygon class="cls-1" points="35.01 240.79 13.21 240.79 2.31 259.67 13.21 278.55 35.01 278.55 45.91 259.67 35.01 240.79"/><polygon class="cls-1" points="78.61 240.79 56.81 240.79 45.91 259.67 56.81 278.55 78.61 278.55 89.51 259.67 78.61 240.79"/><polygon class="cls-1" points="122.21 240.79 100.41 240.79 89.51 259.67 100.41 278.55 122.21 278.55 133.11 259.67 122.21 240.79"/><polygon class="cls-1" points="165.81 240.79 144.01 240.79 133.11 259.67 144.01 278.55 165.81 278.55 176.71 259.67 165.81 240.79"/><polygon class="cls-3" points="209.41 240.79 187.61 240.79 176.71 259.67 187.61 278.55 209.41 278.55 220.31 259.67 209.41 240.79"/><polygon class="cls-1" points="253.01 240.79 231.21 240.79 220.31 259.67 231.21 278.55 253.01 278.55 263.91 259.67 253.01 240.79"/><polygon class="cls-1" points="296.61 240.79 274.81 240.79 263.91 259.67 274.81 278.55 296.61 278.55 307.51 259.67 296.61 240.79"/><polygon class="cls-1" points="340.21 240.79 318.41 240.79 307.51 259.67 318.41 278.55 340.21 278.55 351.11 259.67 340.21 240.79"/><polygon class="cls-1" points="35.01 288.55 13.21 288.55 2.31 307.43 13.21 326.31 35.01 326.31 45.91 307.43 35.01 288.55"/><polygon class="cls-1" points="78.61 288.55 56.81 288.55 45.91 307.43 56.81 326.31 78.61 326.31 89.51 307.43 78.61 288.55"/><polygon class="cls-1" points="122.21 288.55 100.41 288.55 89.51 307.43 100.41 326.31 122.21 326.31 133.11 307.43 122.21 288.55"/><polygon class="cls-1" points="165.81 288.55 144.01 288.55 133.11 307.43 144.01 326.31 165.81 326.31 176.71 307.43 165.81 288.55"/><polygon class="cls-1" points="209.41 288.55 187.61 288.55 176.71 307.43 187.61 326.31 209.41 326.31 220.31 307.43 209.41 288.55"/><polygon class="cls-1" points="253.01 288.55 231.21 288.55 220.31 307.43 231.21 326.31 253.01 326.31 263.91 307.43 253.01 288.55"/><polygon class="cls-1" points="296.61 288.55 274.81 288.55 263.91 307.43 274.81 326.31 296.61 326.31 307.51 307.43 296.61 288.55"/><polygon class="cls-1" points="340.21 288.55 318.41 288.55 307.51 307.43 318.41 326.31 340.21 326.31 351.11 307.43 340.21 288.55"/><polygon class="cls-1" points="35.01 336.31 13.21 336.31 2.31 355.19 13.21 374.07 35.01 374.07 45.91 355.19 35.01 336.31"/><polygon class="cls-1" points="78.61 336.31 56.81 336.31 45.91 355.19 56.81 374.07 78.61 374.07 89.51 355.19 78.61 336.31"/><polygon class="cls-1" points="122.21 336.31 100.41 336.31 89.51 355.19 100.41 374.07 122.21 374.07 133.11 355.19 122.21 336.31"/><polygon class="cls-1" points="165.81 336.31 144.01 336.31 133.11 355.19 144.01 374.07 165.81 374.07 176.71 355.19 165.81 336.31"/><polygon class="cls-1" points="209.41 336.31 187.61 336.31 176.71 355.19 187.61 374.07 209.41 374.07 220.31 355.19 209.41 336.31"/><polygon class="cls-1" points="253.01 336.31 231.21 336.31 220.31 355.19 231.21 374.07 253.01 374.07 263.91 355.19 253.01 336.31"/><polygon class="cls-1" points="296.61 336.31 274.81 336.31 263.91 355.19 274.81 374.07 296.61 374.07 307.51 355.19 296.61 336.31"/><polygon class="cls-1" points="340.21 336.31 318.41 336.31 307.51 355.19 318.41 374.07 340.21 374.07 351.11 355.19 340.21 336.31"/></svg>