<svg id="Layer_1" data-name="Layer 1" xmlns="http://www.w3.org/2000/svg" viewBox="0 0 702.21 758.13"><title>SVGTest3</title><polygon points="383.81 372.83 362.01 372.83 351.11 391.71 362.01 410.59 383.81 410.59 394.7 391.71 383.81 372.83" fill="#fff" stroke="#231f20" stroke-miterlimit="10" stroke-width="4"/><polygon points="427.4 372.83 405.61 372.83 394.7 391.71 405.61 410.59 427.4 410.59 438.31 391.71 427.4 372.83" fill="#fff" stroke="#231f20" stroke-miterlimit="10" stroke-width="4"/><polygon points="471 372.83 449.2 372.83 438.31 391.71 449.2 410.59 471 410.59 481.9 391.71 471 372.83" fill="#fff" stroke="#231f20" stroke-miterlimit="10" stroke-width="4"/><polygon points="514.6 372.83 492.8 372.83 481.9 391.71 492.8 410.59 514.6 410.59 525.5 391.71 514.6 372.83" fill="#fff" stroke="#231f20" stroke-miterlimit="10" stroke-width="4"/><polygon points="558.2 372.83 536.4 372.83 525.5 391.71 536.4 410.59 558.2 410.59 569.1 391.71 558.2 372.83" fill="#fff" stroke="#231f20" stroke-miterlimit="10" stroke-width="4"/><polygon points="601.8 372.83 580 372.83 569.1 391.71 580 410.59 601.8 410.59 612.7 391.71 601.8 372.83" fill="#fff" stroke="#231f20" stroke-miterlimit="10" stroke-width="4"/><polygon points="645.4 372.83 623.6 372.83 612.7 391.71 623.6 410.59 645.4 410.59 656.3 391.71 645.4 372.83" fill="#fff" stroke="#231f20" stroke-miterlimit="10" stroke-width="4"/><polygon points="689 372.83 667.2 372.83 656.3 391.71 667.2 410.59 689 410.59 699.9 391.71 689 372.83" fill="#fff" stroke="#231f20" stroke-miterlimit="10" stroke-width="4"/><polygon points="383.81 420.59 362.01 420.59 351.11 439.47 362.01 458.35 383.81 458.35 394.7 439.47 383.81 420.59" fill="#fff" stroke="#231f20" stroke-miterlimit="10" stroke-width="4"/><polygon points="427.4 420.59 405.61 420.59 394.7 439.47 405.61 458.35 427.4 458.35 438.31 439.47 427.4 420.59" fill="#fff" stroke="#231f20" stroke-miterlimit="10" stroke-width="4"/><polygon points="471 420.59 449.2 420.59 438.31 439.47 449.2 458.35 471 458.35 481.9 439.47 471 420.59" fill="#fff" stroke="#231f20" stroke-miterlimit="10" stroke-width="4"/><polygon points="514.6 420.59 492.8 420.59 481.9 439.47 492.8 458.35 514.6 458.35 525.5 439.47 514.6 420.59" fill="#fff" stroke="#231f20" stroke-miterlimit="10" stroke-width="4"/><polygon points="558.2 420.59 536.4 420.59 525.5 439.47 536.4 458.35 558.2 458.35 569.1 439.47 558.2 420.59" fill="#fff" stroke="#231f20" stroke-miterlimit="10" stroke-width="4"/><polygon points="601.8 420.59 580 420.59 569.1 439.47 580 458.35 601.8 458.35 612.7 439.47 601.8 420.59" fill="#fff" stroke="#231f20" stroke-miterlimit="10" stroke-width="4"/><polygon points="645.4 420.59 623.6 420.59 612.7 439.47 623.6 458.35 645.4 458.35 656.3 439.47 645.4 420.59" fill="#fff" stroke="#231f20" stroke-miterlimit="10" stroke-width="4"/><polygon points="689 420.59 667.2 420.59 656.3 439.47 667.2 458.35 689 458.35 699.9 439.47 689 420.59" fill="#fff" stroke="#231f20" stroke-miterlimit="10" stroke-width="4"/><polygon points="383.81 468.35 362.01 468.35 351.11 487.23 362.01 506.11 383.81 506.11 394.7 487.23 383.81 468.35" fill="#fff" stroke="#231f20" stroke-miterlimit="10" stroke-width="4"/><polygon points="427.4 468.35 405.61 468.35 394.7 487.23 405.61 506.11 427.4 506.11 438.31 487.23 427.4 468.35" fill="#fff" stroke="#231f20" stroke-miterlimit="10" stroke-width="4"/><polygon points="471 468.35 449.2 468.35 438.31 487.23 449.2 506.11 471 506.11 481.9 487.23 471 468.35" fill="#fff" stroke="#231f20" stroke-miterlimit="10" stroke-width="4"/><polygon points="514.6 468.35 492.8 468.35 481.9 487.23 492.8 506.11 514.6 506.11 525.5 487.23 514.6 468.35" fill="#ffde17" stroke="#ffde17" stroke-miterlimit="10" stroke-width="4"/><polygon points="558.2 468.35 536.4 468.35 525.5 487.23 536.4 506.11 558.2 506.11 569.1 487.23 558.2 468.35" fill="#ffde17" stroke="#ffde17" stroke-miterlimit="10" stroke-width="4"/><polygon points="601.8 468.35 580 468.35 569.1 487.23 580 506.11 601.8 506.11 612.7 487.23 601.8 468.35" fill="#fff" stroke="#231f20" stroke-miterlimit="10" stroke-width="4"/><polygon points="645.4 468.35 623.6 468.35 612.7 487.23 623.6 506.11 645.4 506.11 656.3 487.23 645.4 468.35" fill="#fff" stroke="#231f20" stroke-miterlimit="10" stroke-width="4"/><polygon points="689 468.35 667.2 468.35 656.3 487.23 667.2 506.11 689 506.11 699.9 487.23 689 468.35" fill="#fff" stroke="#231f20" stroke-miterlimit="10" stroke-width="4"/><polygon points="383.81 516.11 362.01 516.11 351.11 534.99 362.01 553.87 383.81 553.87 394.7 534.99 383.81 516.11" fill="#fff" stroke="#231f20" stroke-miterlimit="10" stroke-width="4"/><polygon points="427.4 516.11 405.61 516.11 394.7 534.99 405.61 553.87 427.4 553.87 438.31 534.99 427.4 516.11" fill="#fff" stroke="#231f20" stroke-miterlimit="10" stroke-width="4"/><polygon points="471 516.11 449.2 516.11 438.31 534.99 449.2 553.87 471 553.87 481.9 534.99 471 516.11" fill="#fff" stroke="#231f20" stroke-miterlimit="10" stroke-width="4"/><polygon points="514.6 516.11 492.8 516.11 481.9 534.99 492.8 553.87 514.6 553.87 525.5 534.99 514.6 516.11" fill="#fff" stroke="#231f20" stroke-miterlimit="10" stroke-width="4"/><polygon points="558.2 516.11 536.4 516.11 525.5 534.99 536.4 553.87 558.2 553.87 569.1 534.99 558.2 516.11" fill="#ffde17" stroke="#ffde17" stroke-miterlimit="10" stroke-width="4"/><polygon points="601.8 516.11 580 516.11 569.1 534.99 580 553.87 601.8 553.87 612.7 534.99 601.8 516.11" fill="#fff" stroke="#231f20" stroke-miterlimit="10" stroke-width="4"/><polygon points="645.4 516.11 623.6 516.11 612.7 534.99 623.6 553.87 645.4 553.87 656.3 534.99 645.4 516.11" fill="#fff" stroke="#231f20" stroke-miterlimit="10" stroke-width="4"/><polygon points="689 516.11 667.2 516.11 656.3 534.99 667.2 553.87 689 553.87 699.9 534.99 689 516.11" fill="#fff" stroke="#231f20" stroke-miterlimit="10" stroke-width="4"/><polygon points="383.81 563.87 362.01 563.87 351.11 582.75 362.01 601.63 383.81 601.63 394.7 582.75 383.81 563.87" fill="#fff" stroke="#231f20" stroke-miterlimit="10" stroke-width="4"/><polygon points="427.4 563.87 405.61 563.87 394.7 582.75 405.61 601.63 427.4 601.63 438.31 582.75 427.4 563.87" fill="#fff" stroke="#231f20" stroke-miterlimit="10" stroke-width="4"/><polygon points="471 563.87 449.2 563.87 438.31 582.75 449.2 601.63 471 601.63 481.9 582.75 471 563.87" fill="#fff" stroke="#231f20" stroke-miterlimit="10" stroke-width="4"/><polygon points="514.6 563.87 492.8 563.87 481.9 582.75 492.8 601.63 514.6 601.63 525.5 582.75 514.6 563.87" fill="#fff" stroke="#ffde17" stroke-miterlimit="10" stroke-width="4"/><polygon points="558.2 563.87 536.4 563.87 525.5 582.75 536.4 601.63 558.2 601.63 569.1 582.75 558.2 563.87" fill="#fff" stroke="#231f20" stroke-miterlimit="10" stroke-width="4"/><polygon points="601.8 563.87 580 563.87 569.1 582.75 580 601.63 601.8 601.63 612.7 582.75 601.8 563.87" fill="#fff" stroke="#231f20" stroke-miterlimit="10" stroke-width="4"/><polygon points="645.4 563.87 623.6 563.87 612.7 582.75 623.6 601.63 645.4 601.63 656.3 582.75 645.4 563.87" fill="#fff" stroke="#231f20" stroke-miterlimit="10" stroke-width="4"/><polygon points="689 563.87 667.2 563.87 656.3 582.75 667.2 601.63 689 601.63 699.9 582.75 689 563.87" fill="#fff" stroke="#231f20" stroke-miterlimit="10" stroke-width="4"/><polygon points="383.81 611.63 362.01 611.63 351.11 630.51 362.01 649.38 383.81 649.38 394.7 630.51 383.81 611.63" fill="#fff" stroke="#231f20" stroke-miterlimit="10" stroke-width="4"/><polygon points="427.4 611.63 405.61 611.63 394.7 630.51 405.61 649.38 427.4 649.38 438.31 630.51 427.4 611.63" fill="#fff" stroke="#231f20" stroke-miterlimit="10" stroke-width="4"/><polygon points="471 611.63 449.2 611.63 438.31 630.51 449.2 649.38 471 649.38 481.9 630.51 471 611.63" fill="#fff" stroke="#231f20" stroke-miterlimit="10" stroke-width="4"/><polygon points="514.6 611.63 492.8 611.63 481.9 630.51 492.8 649.38 514.6 649.38 525.5 630.51 514.6 611.63" fill="#fff" stroke="#231f20" stroke-miterlimit="10" stroke-width="4"/><polygon points="558.2 611.63 536.4 611.63 525.5 630.51 536.4 649.38 558.2 649.38 569.1 630.51 558.2 611.63" fill="#fff" stroke="#ffde17" stroke-miterlimit="10" stroke-width="4"/><polygon points="601.8 611.63 580 611.63 569.1 630.51 580 649.38 601.8 649.38 612.7 630.51 601.8 611.63" fill="#fff" stroke="#231f20" stroke-miterlimit="10" stroke-width="4"/><polygon points="645.4 611.63 623.6 611.63 612.7 630.51 623.6 649.38 645.4 649.38 656.3 630.51 645.4 611.63" fill="#fff" stroke="#231f20" stroke-miterlimit="10" stroke-width="4"/><polygon points="689 611.63 667.2 611.63 656.3 630.51 667.2 649.38 689 649.38 699.9 630.51 689 611.63" fill="#fff" stroke="#231f20" stroke-miterlimit="10" stroke-width="4"/><polygon points="383.81 659.38 362.01 659.38 351.11 678.26 362.01 697.14 383.81 697.14 394.7 678.26 383.81 659.38" fill="#fff" stroke="#231f20" stroke-miterlimit="10" stroke-width="4"/><polygon points="427.4 659.38 405.61 659.38 394.7 678.26 405.61 697.14 427.4 697.14 438.31 678.26 427.4 659.38" fill="#fff" stroke="#231f20" stroke-miterlimit="10" stroke-width="4"/><polygon points="471 659.38 449.2 659.38 438.31 678.26 449.2 697.14 471 697.14 481.9 678.26 471 659.38" fill="#fff" stroke="#231f20" stroke-miterlimit="10" stroke-width="4"/><polygon points="514.6 659.38 492.8 659.38 481.9 678.26 492.8 697.14 514.6 697.14 525.5 678.26 514.6 659.38" fill="#fff" stroke="#231f20" stroke-miterlimit="10" stroke-width="4"/><polygon points="558.2 659.38 536.4 659.38 525.5 678.26 536.4 697.14 558.2 697.14 569.1 678.26 558.2 659.38" fill="#fff" stroke="#231f20" stroke-miterlimit="10" stroke-width="4"/><polygon points="601.8 659.38 580 659.38 569.1 678.26 580 697.14 601.8 697.14 612.7 678.26 601.8 659.38" fill="#fff" stroke="#231f20" stroke-miterlimit="10" stroke-width="4"/><polygon points="645.4 659.38 623.6 659.38 612.7 678.26 623.6 697.14 645.4 697.14 656.3 678.26 645.4 659.38" fill="#fff" stroke="#231f20" stroke-miterlimit="10" stroke-width="4"/><polygon points="689 659.38 667.2 659.38 656.3 678.26 667.2 697.14 689 697.14 699.9 678.26 689 659.38" fill="#fff" stroke="#231f20" stroke-miterlimit="10" stroke-width="4"/><polygon points="383.81 707.14 362.01 707.14 351.11 726.02 362.01 744.9 383.81 744.9 394.7 726.02 383.81 707.14" fill="#fff" stroke="#231f20" stroke-miterlimit="10" stroke-width="4"/><polygon points="427.4 707.14 405.61 707.14 394.7 726.02 405.61 744.9 427.4 744.9 438.31 726.02 427.4 707.14" fill="#fff" stroke="#231f20" stroke-miterlimit="10" stroke-width="4"/><polygon points="471 707.14 449.2 707.14 438.31 726.02 449.2 744.9 471 744.9 481.9 726.02 471 707.14" fill="#fff" stroke="#231f20" stroke-miterlimit="10" stroke-width="4"/><polygon points="514.6 707.14 492.8 707.14 481.9 726.02 492.8 744.9 514.6 744.9 525.5 726.02 514.6 707.14" fill="#fff" stroke="#231f20" stroke-miterlimit="10" stroke-width="4"/><polygon points="558.2 707.14 536.4 707.14 525.5 726.02 536.4 744.9 558.2 744.9 569.1 726.02 558.2 707.14" fill="#fff" stroke="#231f20" stroke-miterlimit="10" stroke-width="4"/><polygon points="601.8 707.14 580 707.14 569.1 726.02 580 744.9 601.8 744.9 612.7 726.02 601.8 707.14" fill="#fff" stroke="#231f20" stroke-miterlimit="10" stroke-width="4"/><polygon points="645.4 707.14 623.6 707.14 612.7 726.02 623.6 744.9 645.4 744.9 656.3 726.02 645.4 707.14" fill="#fff" stroke="#231f20" stroke-miterlimit="10" stroke-width="4"/><polygon points="689 707.14 667.2 707.14 656.3 726.02 667.2 744.9 689 744.9 699.9 726.02 689 707.14" fill="#fff" stroke="#231f20" stroke-miterlimit="10" stroke-width="4"/><polygon points="35.01 2 13.21 2 2.31 20.88 13.21 39.76 35.01 39.76 45.91 20.88 35.01 2" fill="#fff" stroke="#231f20" stroke-miterlimit="10" stroke-width="4"/><polygon points="78.61 2 56.81 2 45.91 20.88 56.81 39.76 78.61 39.76 89.51 20.88 78.61 2" fill="#fff" stroke="#231f20" stroke-miterlimit="10" stroke-width="4"/><polygon points="122.21 2 100.41 2 89.51 20.88 100.41 39.76 122.21 39.76 133.11 20.88 122.21 2" fill="#fff" stroke="#231f20" stroke-miterlimit="10" stroke-width="4"/><polygon points="165.81 2 144.01 2 133.11 20.88 144.01 39.76 165.81 39.76 176.71 20.88 165.81 2" fill="#fff" stroke="#231f20" stroke-miterlimit="10" stroke-width="4"/><polygon points="209.41 2 187.61 2 176.71 20.88 187.61 39.76 209.41 39.76 220.31 20.88 209.41 2" fill="#fff" stroke="#231f20" stroke-miterlimit="10" stroke-width="4"/><polygon points="253.01 2 231.21 2 220.31 20.88 231.21 39.76 253.01 39.76 263.91 20.88 253.01 2" fill="#fff" stroke="#231f20" stroke-miterlimit="10" stroke-width="4"/><polygon points="296.61 2 274.81 2 263.91 20.88 274.81 39.76 296.61 39.76 307.51 20.88 296.61 2" fill="#fff" stroke="#231f20" stroke-miterlimit="10" stroke-width="4"/><polygon points="340.21 2 318.41 2 307.51 20.88 318.41 39.76 340.21 39.76 351.11 20.88 340.21 2" fill="#fff" stroke="#231f20" stroke-miterlimit="10" stroke-width="4"/><polygon points="35.01 49.76 13.21 49.76 2.31 68.64 13.21 87.52 35.01 87.52 45.91 68.64 35.01 49.76" fill="#fff" stroke="#231f20" stroke-miterlimit="10" stroke-width="4"/><polygon points="78.61 49.76 56.81 49.76 45.91 68.64 56.81 87.52 78.61 87.52 89.51 68.64 78.61 49.76" fill="#fff" stroke="#231f20" stroke-miterlimit="10" stroke-width="4"/><polygon points="122.21 49.76 100.41 49.76 89.51 68.64 100.41 87.52 122.21 87.52 133.11 68.64 122.21 49.76" fill="#fff" stroke="#231f20" stroke-miterlimit="10" stroke-width="4"/><polygon points="165.81 49.76 144.01 49.76 133.11 68.64 144.01 87.52 165.81 87.52 176.71 68.64 165.81 49.76" fill="#fff" stroke="#231f20" stroke-miterlimit="10" stroke-width="4"/><polygon points="209.41 49.76 187.61 49.76 176.71 68.64 187.61 87.52 209.41 87.52 220.31 68.64 209.41 49.76" fill="#fff" stroke="#231f20" stroke-miterlimit="10" stroke-width="4"/><polygon points="253.01 49.76 231.21 49.76 220.31 68.64 231.21 87.52 253.01 87.52 263.91 68.64 253.01 49.76" fill="#fff" stroke="#231f20" stroke-miterlimit="10" stroke-width="4"/><polygon points="296.61 49.76 274.81 49.76 263.91 68.64 274.81 87.52 296.61 87.52 307.51 68.64 296.61 49.76" fill="#fff" stroke="#231f20" stroke-miterlimit="10" stroke-width="4"/><polygon points="340.21 49.76 318.41 49.76 307.51 68.64 318.41 87.52 340.21 87.52 351.11 68.64 340.21 49.76" fill="#fff" stroke="#231f20" stroke-miterlimit="10" stroke-width="4"/><polygon points="35.01 97.52 13.21 97.52 2.31 116.4 13.21 135.28 35.01 135.28 45.91 116.4 35.01 97.52" fill="#fff" stroke="#231f20" stroke-miterlimit="10" stroke-width="4"/><polygon points="78.61 97.52 56.81 97.52 45.91 116.4 56.81 135.28 78.61 135.28 89.51 116.4 78.61 97.52" fill="#fff" stroke="#231f20" stroke-miterlimit="10" stroke-width="4"/><polygon points="122.21 97.52 100.41 97.52 89.51 116.4 100.41 135.28 122.21 135.28 133.11 116.4 122.21 97.52" fill="#fff" stroke="#231f20" stroke-miterlimit="10" stroke-width="4"/><polygon points="165.81 97.52 144.01 97.52 133.11 116.4 144.01 135.28 165.81 135.28 176.71 116.4 165.81 97.52" fill="#ffde17" stroke="#ffde17" stroke-miterlimit="10" stroke-width="4"/><polygon points="209.41 97.52 187.61 97.52 176.71 116.4 187.61 135.28 209.41 135.28 220.31 116.4 209.41 97.52" fill="#ffde17" stroke="#ffde17" stroke-miterlimit="10" stroke-width="4"/><polygon points="253.01 97.52 231.21 97.52 220.31 116.4 231.21 135.28 253.01 135.28 263.91 116.4 253.01 97.52" fill="#fff" stroke="#231f20" stroke-miterlimit="10" stroke-width="4"/><polygon points="296.61 97.52 274.81 97.52 263.91 116.4 274.81 135.28 296.61 135.28 307.51 116.4 296.61 97.52" fill="#fff" stroke="#231f20" stroke-miterlimit="10" stroke-width="4"/><polygon points="340.21 97.52 318.41 97.52 307.51 116.4 318.41 135.28 340.21 135.28 351.11 116.4 340.21 97.52" fill="#fff" stroke="#231f20" stroke-miterlimit="10" stroke-width="4"/><polygon points="35.01 145.28 13.21 145.28 2.31 164.15 13.21 183.03 35.01 183.03 45.91 164.15 35.01 145.28" fill="#fff" stroke="#231f20" stroke-miterlimit="10" stroke-width="4"/><polygon points="78.61 145.28 56.81 145.28 45.91 164.15 56.81 183.03 78.61 183.03 89.51 164.15 78.61 145.28" fill="#fff" stroke="#231f20" stroke-miterlimit="10" stroke-width="4"/><polygon points="122.21 145.28 100.41 145.28 89.51 164.15 100.41 183.03 122.21 183.03 133.11 164.15 122.21 145.28" fill="#fff" stroke="#231f20" stroke-miterlimit="10" stroke-width="4"/><polygon points="165.81 145.28 144.01 145.28 133.11 164.15 144.01 183.03 165.81 183.03 176.71 164.15 165.81 145.28" fill="#fff" stroke="#231f20" stroke-miterlimit="10" stroke-width="4"/><polygon points="209.41 145.28 187.61 145.28 176.71 164.15 187.61 183.03 209.41 183.03 220.31 164.15 209.41 145.28" fill="#ffde17" stroke="#ffde17" stroke-miterlimit="10" stroke-width="4"/><polygon points="253.01 145.28 231.21 145.28 220.31 164.15 231.21 183.03 253.01 183.03 263.91 164.15 253.01 145.28" fill="#fff" stroke="#231f20" stroke-miterlimit="10" stroke-width="4"/><polygon points="296.61 145.28 274.81 145.28 263.91 164.15 274.81 183.03 296.61 183.03 307.51 164.15 296.61 145.28" fill="#fff" stroke="#231f20" stroke-miterlimit="10" stroke-width="4"/><polygon points="340.21 145.28 318.41 145.28 307.51 164.15 318.41 183.03 340.21 183.03 351.11 164.15 340.21 145.28" fill="#fff" stroke="#231f20" stroke-miterlimit="10" stroke-width="4"/><polygon points="35.01 193.03 13.21 193.03 2.31 211.91 13.21 230.79 35.01 230.79 45.91 211.91 35.01 193.03" fill="#fff" stroke="#231f20" stroke-miterlimit="10" stroke-width="4"/><polygon points="78.61 193.03 56.81 193.03 45.91 211.91 56.81 230.79 78.61 230.79 89.51 211.91 78.61 193.03" fill="#fff" stroke="#231f20" stroke-miterlimit="10" stroke-width="4"/><polygon points="122.21 193.03 100.41 193.03 89.51 211.91 100.41 230.79 122.21 230.79 133.11 211.91 122.21 193.03" fill="#fff" stroke="#231f20" stroke-miterlimit="10" stroke-width="4"/><polygon points="165.81 193.03 144.01 193.03 133.11 211.91 144.01 230.79 165.81 230.79 176.71 211.91 165.81 193.03" fill="#fff" stroke="#ffde17" stroke-miterlimit="10" stroke-width="4"/><polygon points="209.41 193.03 187.61 193.03 176.71 211.91 187.61 230.79 209.41 230.79 220.31 211.91 209.41 193.03" fill="#fff" stroke="#231f20" stroke-miterlimit="10" stroke-width="4"/><polygon points="253.01 193.03 231.21 193.03 220.31 211.91 231.21 230.79 253.01 230.79 263.91 211.91 253.01 193.03" fill="#fff" stroke="#231f20" stroke-miterlimit="10" stroke-width="4"/><polygon points="296.61 193.03 274.81 193.03 263.91 211.91 274.81 230.79 296.61 230.79 307.51 211.91 296.61 193.03" fill="#fff" stroke="#231f20" stroke-miterlimit="10" stroke-width="4"/><polygon points="340.21 193.03 318.41 193.03 307.51 211.91 318.41 230.79 340.21 230.79 351.11 211.91 340.21 193.03" fill="#fff" stroke="#231f20" stroke-miterlimit="10" stroke-width="4"/><polygon points="35.01 240.79 13.21 240.79 2.31 259.67 13.21 278.55 35.01 278.55 45.91 259.67 35.01 240.79" fill="#fff" stroke="#231f20" stroke-miterlimit="10" stroke-width="4"/><polygon points="78.61 240.79 56.81 240.79 45.91 259.67 56.81 278.55 78.61 278.55 89.51 259.67 78.61 240.79" fill="#fff" stroke="#231f20" stroke-miterlimit="10" stroke-width="4"/><polygon points="122.21 240.79 100.41 240.79 89.51 259.67 100.41 278.55 122.21 278.55 133.11 259.67 122.21 240.79" fill="#fff" stroke="#231f20" stroke-miterlimit="10" stroke-width="4"/><polygon points="165.81 240.79 144.01 240.79 133.11 259.67 144.01 278.55 165.81 278.55 176.71 259.67 165.81 240.79" fill="#fff" stroke="#231f20" stroke-miterlimit="10" stroke-width="4"/><polygon points="209.41 240.79 187.61 240.79 176.71 259.67 187.61 278.55 209.41 278.55 220.31 259.67 209.41 240.79" fill="#fff" stroke="#ffde17" stroke-miterlimit="10" stroke-width="4"/><polygon points="253.01 240.79 231.21 240.79 220.31 259.67 231.21 278.55 253.01 278.55 263.91 259.67 253.01 240.79" fill="#fff" stroke="#231f20" stroke-miterlimit="10" stroke-width="4"/><polygon points="296.61 240.79 274.81 240.79 263.91 259.67 274.81 278.55 296.61 278.55 307.51 259.67 296.61 240.79" fill="#fff" stroke="#231f20" stroke-miterlimit="10" stroke-width="4"/><polygon points="340.21 240.79 318.41 240.79 307.51 259.67 318.41 278.55 340.21 278.55 351.11 259.67 340.21 240.79" fill="#fff" stroke="#231f20" stroke-miterlimit="10" stroke-width="4"/><polygon points="35.01 288.55 13.21 288.55 2.31 307.43 13.21 326.31 35.01 326.31 45.91 307.43 35.01 288.55" fill="#fff" stroke="#231f20" stroke-miterlimit="10" stroke-width="4"/><polygon points="78.61 288.55 56.81 288.55 45.91 307.43 56.81 326.31 78.61 326.31 89.51 307.43 78.61 288.55" fill="#fff" stroke="#231f20" stroke-miterlimit="10" stroke-width="4"/><polygon points="122.21 288.55 100.41 288.55 89.51 307.43 100.41 326.31 122.21 326.31 133.11 307.43 122.21 288.55" fill="#fff" stroke="#231f20" stroke-miterlimit="10" stroke-width="4"/><polygon points="165.81 288.55 144.01 288.55 133.11 307.43 144.01 326.31 165.81 326.31 176.71 307.43 165.81 288.55" fill="#fff" stroke="#231f20" stroke-miterlimit="10" stroke-width="4"/><polygon points="209.41 288.55 187.61 288.55 176.71 307.43 187.61 326.31 209.41 326.31 220.31 307.43 209.41 288.55" fill="#fff" stroke="#231f20" stroke-miterlimit="10" stroke-width="4"/><polygon points="253.01 288.55 231.21 288.55 220.31 307.43 231.21 326.31 253.01 326.31 263.91 307.43 253.01 288.55" fill="#fff" stroke="#231f20" stroke-miterlimit="10" stroke-width="4"/><polygon points="296.61 288.55 274.81 288.55 263.91 307.43 274.81 326.31 296.61 326.31 307.51 307.43 296.61 288.55" fill="#fff" stroke="#231f20" stroke-miterlimit="10" stroke-width="4"/><polygon points="340.21 288.55 318.41 288.55 307.51 307.43 318.41 326.31 340.21 326.31 351.11 307.43 340.21 288.55" fill="#fff" stroke="#231f20" stroke-miterlimit="10" stroke-width="4"/><polygon points="35.01 336.31 13.21 336.31 2.31 355.19 13.21 374.07 35.01 374.07 45.91 355.19 35.01 336.31" fill="#fff" stroke="#231f20" stroke-miterlimit="10" stroke-width="4"/><polygon points="78.61 336.31 56.81 336.31 45.91 355.19 56.81 374.07 78.61 374.07 89.51 355.19 78.61 336.31" fill="#fff" stroke="#231f20" stroke-miterlimit="10" stroke-width="4"/><polygon points="122.21 336.31 100.41 336.31 89.51 355.19 100.41 374.07 122.21 374.07 133.11 355.19 122.21 336.31" fill="#fff" stroke="#231f20" stroke-miterlimit="10" stroke-width="4"/><polygon points="165.81 336.31 144.01 336.31 133.11 355.19 144.01 374.07 165.81 374.07 176.71 355.19 165.81 336.31" fill="#fff" stroke="#231f20" stroke-miterlimit="10" stroke-width="4"/><polygon points="209.41 336.31 187.61 336.31 176.71 355.19 187.61 374.07 209.41 374.07 220.31 355.19 209.41 336.31" fill="#fff" stroke="#231f20" stroke-miterlimit="10" stroke-width="4"/><polygon points="253.01 336.31 231.21 336.31 220.31 355.19 231.21 374.07 253.01 374.07 263.91 355.19 253.01 336.31" fill="#fff" stroke="#231f20" stroke-miterlimit="10" stroke-width="4"/><polygon points="296.61 336.31 274.81 336.31 263.91 355.19 274.81 374.07 296.61 374.07 307.51 355.19 296.61 336.31" fill="#fff" stroke="#231f20" stroke-miterlimit="10" stroke-width="4"/><polygon points="340.21 336.31 318.41 336.31 307.51 355.19 318.41 374.07 340.21 374.07 351.11 355.19 340.21 336.31" fill="#fff" stroke="#231f20" stroke-miterlimit="10" stroke-width="4"/><polygon points="35.01 384.07 13.21 384.07 2.31 402.95 13.21 421.82 35.01 421.82 45.91 402.95 35.01 384.07" fill="#fff" stroke="#231f20" stroke-miterlimit="10" stroke-width="4"/><polygon points="78.61 384.07 56.81 384.07 45.91 402.95 56.81 421.82 78.61 421.82 89.51 402.95 78.61 384.07" fill="#fff" stroke="#231f20" stroke-miterlimit="10" stroke-width="4"/><polygon points="122.21 384.07 100.41 384.07 89.51 402.95 100.41 421.82 122.21 421.82 133.11 402.95 122.21 384.07" fill="#fff" stroke="#231f20" stroke-miterlimit="10" stroke-width="4"/><polygon points="165.81 384.07 144.01 384.07 133.11 402.95 144.01 421.82 165.81 421.82 176.71 402.95 165.81 384.07" fill="#fff" stroke="#231f20" stroke-miterlimit="10" stroke-width="4"/><polygon points="209.41 384.07 187.61 384.07 176.71 402.95 187.61 421.82 209.41 421.82 220.31 402.95 209.41 384.07" fill="#fff" stroke="#231f20" stroke-miterlimit="10" stroke-width="4"/><polygon points="253.01 384.07 231.21 384.07 220.31 402.95 231.21 421.82 253.01 421.82 263.91 402.95 253.01 384.07" fill="#fff" stroke="#231f20" stroke-miterlimit="10" stroke-width="4"/><polygon points="296.61 384.07 274.81 384.07 263.91 402.95 274.81 421.82 296.61 421.82 307.51 402.95 296.61 384.07" fill="#fff" stroke="#231f20" stroke-miterlimit="10" stroke-width="4"/><polygon points="340.21 384.07 318.41 384.07 307.51 402.95 318.41 421.82 340.21 421.82 351.11 402.95 340.21 384.07" fill="#fff" stroke="#231f20" stroke-miterlimit="10" stroke-width="4"/><polygon points="35.01 431.82 13.21 431.82 2.31 450.7 13.21 469.58 35.01 469.58 45.91 450.7 35.01 431.82" fill="#fff" stroke="#231f20" stroke-miterlimit="10" stroke-width="4"/><polygon points="78.61 431.82 56.81 431.82 45.91 450.7 56.81 469.58 78.61 469.58 89.51 450.7 78.61 431.82" fill="#fff" stroke="#231f20" stroke-miterlimit="10" stroke-width="4"/><polygon points="122.21 431.82 100.41 431.82 89.51 450.7 100.41 469.58 122.21 469.58 133.11 450.7 122.21 431.82" fill="#fff" stroke="#231f20" stroke-miterlimit="10" stroke-width="4"/><polygon points="165.81 431.82 144.01 431.82 133.11 450.7 144.01 469.58 165.81 469.58 176.71 450.7 165.81 431.82" fill="#fff" stroke="#231f20" stroke-miterlimit="10" stroke-width="4"/><polygon points="209.41 431.82 187.61 431.82 176.71 450.7 187.61 469.58 209.41 469.58 220.31 450.7 209.41 431.82" fill="#fff" stroke="#231f20" stroke-miterlimit="10" stroke-width="4"/><polygon points="253.01 431.82 231.21 431.82 220.31 450.7 231.21 469.58 253.01 469.58 263.91 450.7 253.01 431.82" fill="#fff" stroke="#231f20" stroke-miterlimit="10" stroke-width="4"/><polygon points="296.61 431.82 274.81 431.82 263.91 450.7 274.81 469.58 296.61 469.58 307.51 450.7 296.61 431.82" fill="#fff" stroke="#231f20" stroke-miterlimit="10" stroke-width="4"/><polygon points="340.21 431.82 318.41 431.82 307.51 450.7 318.41 469.58 340.21 469.58 351.11 450.7 340.21 431.82" fill="#fff" stroke="#231f20" stroke-miterlimit="10" stroke-width="4"/><polygon points="35.01 479.58 13.21 479.58 2.31 498.46 13.21 517.34 35.01 517.34 45.91 498.46 35.01 479.58" fill="#fff" stroke="#231f20" stroke-miterlimit="10" stroke-width="4"/><polygon points="78.61 479.58 56.81 479.58 45.91 498.46 56.81 517.34 78.61 517.34 89.51 498.46 78.61 479.58" fill="#fff" stroke="#231f20" stroke-miterlimit="10" stroke-width="4"/><polygon points="122.21 479.58 100.41 479.58 89.51 498.46 100.41 517.34 122.21 517.34 133.11 498.46 122.21 479.58" fill="#fff" stroke="#231f20" stroke-miterlimit="10" stroke-width="4"/><polygon points="165.81 479.58 144.01 479.58 133.11 498.46 144.01 517.34 165.81 517.34 176.71 498.46 165.81 479.58" fill="#ffde17" stroke="#ffde17" stroke-miterlimit="10" stroke-width="4"/><polygon points="209.41 479.58 187.61 479.58 176.71 498.46 187.61 517.34 209.41 517.34 220.31 498.46 209.41 479.58" fill="#ffde17" stroke="#ffde17" stroke-miterlimit="10" stroke-width="4"/><polygon points="253.01 479.58 231.21 479.58 220.31 498.46 231.21 517.34 253.01 517.34 263.91 498.46 253.01 479.58" fill="#fff" stroke="#231f20" stroke-miterlimit="10" stroke-width="4"/><polygon points="296.61 479.58 274.81 479.58 263.91 498.46 274.81 517.34 296.61 517.34 307.51 498.46 296.61 479.58" fill="#fff" stroke="#231f20" stroke-miterlimit="10" stroke-width="4"/><polygon points="340.21 479.58 318.41 479.58 307.51 498.46 318.41 517.34 340.21 517.34 351.11 498.46 340.21 479.58" fill="#fff" stroke="#231f20" stroke-miterlimit="10" stroke-width="4"/><polygon points="35.01 527.34 13.21 527.34 2.31 546.22 13.21 565.1 35.01 565.1 45.91 546.22 35.01 527.34" fill="#fff" stroke="#231f20" stroke-miterlimit="10" stroke-width="4"/><polygon points="78.61 527.34 56.81 527.34 45.91 546.22 56.81 565.1 78.61 565.1 89.51 546.22 78.61 527.34" fill="#fff" stroke="#231f20" stroke-miterlimit="10" stroke-width="4"/><polygon points="122.21 527.34 100.41 527.34 89.51 546.22 100.41 565.1 122.21 565.1 133.11 546.22 122.21 527.34" fill="#fff" stroke="#231f20" stroke-miterlimit="10" stroke-width="4"/><polygon points="165.81 527.34 144.01 527.34 133.11 546.22 144.01 565.1 165.81 565.1 176.71 546.22 165.81 527.34" fill="#fff" stroke="#231f20" stroke-miterlimit="10" stroke-width="4"/><polygon points="209.41 527.34 187.61 527.34 176.71 546.22 187.61 565.1 209.41 565.1 220.31 546.22 209.41 527.34" fill="#ffde17" stroke="#ffde17" stroke-miterlimit="10" stroke-width="4"/><polygon points="253.01 527.34 231.21 527.34 220.31 546.22 231.21 565.1 253.01 565.1 263.91 546.22 253.01 527.34" fill="#fff" stroke="#231f20" stroke-miterlimit="10" stroke-width="4"/><polygon points="296.61 527.34 274.81 527.34 263.91 546.22 274.81 565.1 296.61 565.1 307.51 546.22 296.61 527.34" fill="#fff" stroke="#231f20" stroke-miterlimit="10" stroke-width="4"/><polygon points="340.21 527.34 318.41 527.34 307.51 546.22 318.41 565.1 340.21 565.1 351.11 546.22 340.21 527.34" fill="#fff" stroke="#231f20" stroke-miterlimit="10" stroke-width="4"/><polygon points="35.01 575.1 13.21 575.1 2.31 593.98 13.21 612.86 35.01 612.86 45.91 593.98 35.01 575.1" fill="#fff" stroke="#231f20" stroke-miterlimit="10" stroke-width="4"/><polygon points="78.61 575.1 56.81 575.1 45.91 593.98 56.81 612.86 78.61 612.86 89.51 593.98 78.61 575.1" fill="#fff" stroke="#231f20" stroke-miterlimit="10" stroke-width="4"/><polygon points="122.21 575.1 100.41 575.1 89.51 593.98 100.41 612.86 122.21 612.86 133.11 593.98 122.21 575.1" fill="#fff" stroke="#231f20" stroke-miterlimit="10" stroke-width="4"/><polygon points="165.81 575.1 144.01 575.1 133.11 593.98 144.01 612.86 165.81 612.86 176.71 593.98 165.81 575.1" fill="#fff" stroke="#ffde17" stroke-miterlimit="10" stroke-width="4"/><polygon points="209.41 575.1 187.61 575.1 176.71 593.98 187.61 612.86 209.41 612.86 220.31 593.98 209.41 575.1" fill="#fff" stroke="#231f20" stroke-miterlimit="10" stroke-width="4"/><polygon points="253.01 575.1 231.21 575.1 220.31 593.98 231.21 612.86 253.01 612.86 263.91 593.98 253.01 575.1" fill="#fff" stroke="#231f20" stroke-miterlimit="10" stroke-width="4"/><polygon points="296.61 575.1 274.81 575.1 263.91 593.98 274.81 612.86 296.61 612.86 307.51 593.98 296.61 575.1" fill="#fff" stroke="#231f20" stroke-miterlimit="10" stroke-width="4"/><polygon points="340.21 575.1 318.41 575.1 307.51 593.98 318.41 612.86 340.21 612.86 351.11 593.98 340.21 575.1" fill="#fff" stroke="#231f20" stroke-miterlimit="10" stroke-width="4"/><polygon points="35.01 622.86 13.21 622.86 2.31 641.74 13.21 660.62 35.01 660.62 45.91 641.74 35.01 622.86" fill="#fff" stroke="#231f20" stroke-miterlimit="10" stroke-width="4"/><polygon points="78.61 622.86 56.81 622.86 45.91 641.74 56.81 660.62 78.61 660.62 89.51 641.74 78.61 622.86" fill="#fff" stroke="#231f20" stroke-miterlimit="10" stroke-width="4"/><polygon points="122.21 622.86 100.41 622.86 89.51 641.74 100.41 660.62 122.21 660.62 133.11 641.74 122.21 622.86" fill="#fff" stroke="#231f20" stroke-miterlimit="10" stroke-width="4"/><polygon points="165.81 622.86 144.01 622.86 133.11 641.74 144.01 660.62 165.81 660.62 176.71 641.74 165.81 622.86" fill="#fff" stroke="#231f20" stroke-miterlimit="10" stroke-width="4"/><polygon points="209.41 622.86 187.61 622.86 176.71 641.74 187.61 660.62 209.41 660.62 220.31 641.74 209.41 622.86" fill="#fff" stroke="#ffde17" stroke-miterlimit="10" stroke-width="4"/><polygon points="253.01 622.86 231.21 622.86 220.31 641.74 231.21 660.62 253.01 660.62 263.91 641.74 253.01 622.86" fill="#fff" stroke="#231f20" stroke-miterlimit="10" stroke-width="4"/><polygon points="296.61 622.86 274.81 622.86 263.91 641.74 274.81 660.62 296.61 660.62 307.51 641.74 296.61 622.86" fill="#fff" stroke="#231f20" stroke-miterlimit="10" stroke-width="4"/><polygon points="340.21 622.86 318.41 622.86 307.51 641.74 318.41 660.62 340.21 660.62 351.11 641.74 340.21 622.86" fill="#fff" stroke="#231f20" stroke-miterlimit="10" stroke-width="4"/><polygon points="35.01 670.62 13.21 670.62 2.31 689.5 13.21 708.38 35.01 708.38 45.91 689.5 35.01 670.62" fill="#fff" stroke="#231f20" stroke-miterlimit="10" stroke-width="4"/><polygon points="78.61 670.62 56.81 670.62 45.91 689.5 56.81 708.38 78.61 708.38 89.51 689.5 78.61 670.62" fill="#fff" stroke="#231f20" stroke-miterlimit="10" stroke-width="4"/><polygon points="122.21 670.62 100.41 670.62 89.51 689.5 100.41 708.38 122.21 708.38 133.11 689.5 122.21 670.62" fill="#fff" stroke="#231f20" stroke-miterlimit="10" stroke-width="4"/><polygon points="165.81 670.62 144.01 670.62 133.11 689.5 144.01 708.38 165.81 708.38 176.71 689.5 165.81 670.62" fill="#fff" stroke="#231f20" stroke-miterlimit="10" stroke-width="4"/><polygon points="209.41 670.62 187.61 670.62 176.71 689.5 187.61 708.38 209.41 708.38 220.31 689.5 209.41 670.62" fill="#fff" stroke="#231f20" stroke-miterlimit="10" stroke-width="4"/><polygon points="253.01 670.62 231.21 670.62 220.31 689.5 231.21 708.38 253.01 708.38 263.91 689.5 253.01 670.62" fill="#fff" stroke="#231f20" stroke-miterlimit="10" stroke-width="4"/><polygon points="296.61 670.62 274.81 670.62 263.91 689.5 274.81 708.38 296.61 708.38 307.51 689.5 296.61 670.62" fill="#fff" stroke="#231f20" stroke-miterlimit="10" stroke-width="4"/><polygon points="340.21 670.62 318.41 670.62 307.51 689.5 318.41 708.38 340.21 708.38 351.11 689.5 340.21 670.62" fill="#fff" stroke="#231f20" stroke-miterlimit="10" stroke-width="4"/><polygon points="35.01 718.38 13.21 718.38 2.31 737.25 13.21 756.13 35.01 756.13 45.91 737.25 35.01 718.38" fill="#fff" stroke="#231f20" stroke-miterlimit="10" stroke-width="4"/><polygon points="78.61 718.38 56.81 718.38 45.91 737.25 56.81 756.13 78.61 756.13 89.51 737.25 78.61 718.38" fill="#fff" stroke="#231f20" stroke-miterlimit="10" stroke-width="4"/><polygon points="122.21 718.38 100.41 718.38 89.51 737.25 100.41 756.13 122.21 756.13 133.11 737.25 122.21 718.38" fill="#fff" stroke="#231f20" stroke-miterlimit="10" stroke-width="4"/><polygon points="165.81 718.38 144.01 718.38 133.11 737.25 144.01 756.13 165.81 756.13 176.71 737.25 165.81 718.38" fill="#fff" stroke="#231f20" stroke-miterlimit="10" stroke-width="4"/><polygon points="209.41 718.38 187.61 718.38 176.71 737.25 187.61 756.13 209.41 756.13 220.31 737.25 209.41 718.38" fill="#fff" stroke="#231f20" stroke-miterlimit="10" stroke-width="4"/><polygon points="253.01 718.38 231.21 718.38 220.31 737.25 231.21 756.13 253.01 756.13 263.91 737.25 253.01 718.38" fill="#fff" stroke="#231f20" stroke-miterlimit="10" stroke-width="4"/><polygon points="296.61 718.38 274.81 718.38 263.91 737.25 274.81 756.13 296.61 756.13 307.51 737.25 296.61 718.38" fill="#fff" stroke="#231f20" stroke-miterlimit="10" stroke-width="4"/><polygon points="340.21 718.38 318.41 718.38 307.51 737.25 318.41 756.13 340.21 756.13 351.11 737.25 340.21 718.38" fill="#fff" stroke="#231f20" stroke-miterlimit="10" stroke-width="4"/><polygon points="383.81 2 362.01 2 351.11 20.88 362.01 39.76 383.81 39.76 394.7 20.88 383.81 2" fill="#fff" stroke="#231f20" stroke-miterlimit="10" stroke-width="4"/><polygon points="427.4 2 405.61 2 394.7 20.88 405.61 39.76 427.4 39.76 438.31 20.88 427.4 2" fill="#fff" stroke="#231f20" stroke-miterlimit="10" stroke-width="4"/><polygon points="471 2 449.2 2 438.31 20.88 449.2 39.76 471 39.76 481.9 20.88 471 2" fill="#fff" stroke="#231f20" stroke-miterlimit="10" stroke-width="4"/><polygon points="514.6 2 492.8 2 481.9 20.88 492.8 39.76 514.6 39.76 525.5 20.88 514.6 2" fill="#fff" stroke="#231f20" stroke-miterlimit="10" stroke-width="4"/><polygon points="558.2 2 536.4 2 525.5 20.88 536.4 39.76 558.2 39.76 569.1 20.88 558.2 2" fill="#fff" stroke="#231f20" stroke-miterlimit="10" stroke-width="4"/><polygon points="601.8 2 580 2 569.1 20.88 580 39.76 601.8 39.76 612.7 20.88 601.8 2" fill="#fff" stroke="#231f20" stroke-miterlimit="10" stroke-width="4"/><polygon points="645.4 2 623.6 2 612.7 20.88 623.6 39.76 645.4 39.76 656.3 20.88 645.4 2" fill="#fff" stroke="#231f20" stroke-miterlimit="10" stroke-width="4"/><polygon points="689 2 667.2 2 656.3 20.88 667.2 39.76 689 39.76 699.9 20.88 689 2" fill="#fff" stroke="#231f20" stroke-miterlimit="10" stroke-width="4"/><polygon points="383.81 49.76 362.01 49.76 351.11 68.64 362.01 87.52 383.81 87.52 394.7 68.64 383.81 49.76" fill="#fff" stroke="#231f20" stroke-miterlimit="10" stroke-width="4"/><polygon points="427.4 49.76 405.61 49.76 394.7 68.64 405.61 87.52 427.4 87.52 438.31 68.64 427.4 49.76" fill="#fff" stroke="#231f20" stroke-miterlimit="10" stroke-width="4"/><polygon points="471 49.76 449.2 49.76 438.31 68.64 449.2 87.52 471 87.52 481.9 68.64 471 49.76" fill="#fff" stroke="#231f20" stroke-miterlimit="10" stroke-width="4"/><polygon points="514.6 49.76 492.8 49.76 481.9 68.64 492.8 87.52 514.6 87.52 525.5 68.64 514.6 49.76" fill="#fff" stroke="#231f20" stroke-miterlimit="10" stroke-width="4"/><polygon points="558.2 49.76 536.4 49.76 525.5 68.64 536.4 87.52 558.2 87.52 569.1 68.64 558.2 49.76" fill="#fff" stroke="#231f20" stroke-miterlimit="10" stroke-width="4"/><polygon points="601.8 49.76 580 49.76 569.1 68.64 580 87.52 601.8 87.52 612.7 68.64 601.8 49.76" fill="#fff" stroke="#231f20" stroke-miterlimit="10" stroke-width="4"/><polygon points="645.4 49.76 623.6 49.76 612.7 68.64 623.6 87.52 645.4 87.52 656.3 68.64 645.4 49.76" fill="#fff" stroke="#231f20" stroke-miterlimit="10" stroke-width="4"/><polygon points="689 49.76 667.2 49.76 656.3 68.64 667.2 87.52 689 87.52 699.9 68.64 689 49.76" fill="#fff" stroke="#231f20" stroke-miterlimit="10" stroke-width="4"/><polygon points="383.81 97.52 362.01 97.52 351.11 116.4 362.01 135.28 383.81 135.28 394.7 116.4 383.81 97.52" fill="#fff" stroke="#231f20" stroke-miterlimit="10" stroke-width="4"/><polygon points="427.4 97.52 405.61 97.52 394.7 116.4 405.61 135.28 427.4 135.28 438.31 116.4 427.4 97.52" fill="#fff" stroke="#231f20" stroke-miterlimit="10" stroke-width="4"/><polygon points="471 97.52 449.2 97.52 438.31 116.4 449.2 135.28 471 135.28 481.9 116.4 471 97.52" fill="#fff" stroke="#231f20" stroke-miterlimit="10" stroke-width="4"/><polygon points="514.6 97.52 492.8 97.52 481.9 116.4 492.8 135.28 514.6 135.28 525.5 116.4 514.6 97.52" fill="#ffde17" stroke="#ffde17" stroke-miterlimit="10" stroke-width="4"/><polygon points="558.2 97.52 536.4 97.52 525.5 116.4 536.4 135.28 558.2 135.28 569.1 116.4 558.2 97.52" fill="#ffde17" stroke="#ffde17" stroke-miterlimit="10" stroke-width="4"/><polygon points="601.8 97.52 580 97.52 569.1 116.4 580 135.28 601.8 135.28 612.7 116.4 601.8 97.52" fill="#fff" stroke="#231f20" stroke-miterlimit="10" stroke-width="4"/><polygon points="645.4 97.52 623.6 97.52 612.7 116.4 623.6 135.28 645.4 135.28 656.3 116.4 645.4 97.52" fill="#fff" stroke="#231f20" stroke-miterlimit="10" stroke-width="4"/><polygon points="689 97.52 667.2 97.52 656.3 116.4 667.2 135.28 689 135.28 699.9 116.4 689 97.52" fill="#fff" stroke="#231f20" stroke-miterlimit="10" stroke-width="4"/><polygon points="383.81 145.28 362.01 145.28 351.11 164.15 362.01 183.03 383.81 183.03 394.7 164.15 383.81 145.28" fill="#fff" stroke="#231f20" stroke-miterlimit="10" stroke-width="4"/><polygon points="427.4 145.28 405.61 145.28 394.7 164.15 405.61 183.03 427.4 183.03 438.31 164.15 427.4 145.28" fill="#fff" stroke="#231f20" stroke-miterlimit="10" stroke-width="4"/><polygon points="471 145.28 449.2 145.28 438.31 164.15 449.2 183.03 471 183.03 481.9 164.15 471 145.28" fill="#fff" stroke="#231f20" stroke-miterlimit="10" stroke-width="4"/><polygon points="514.6 145.28 492.8 145.28 481.9 164.15 492.8 183.03 514.6 183.03 525.5 164.15 514.6 145.28" fill="#fff" stroke="#231f20" stroke-miterlimit="10" stroke-width="4"/><polygon points="558.2 145.28 536.4 145.28 525.5 164.15 536.4 183.03 558.2 183.03 569.1 164.15 558.2 145.28" fill="#ffde17" stroke="#ffde17" stroke-miterlimit="10" stroke-width="4"/><polygon points="601.8 145.28 580 145.28 569.1 164.15 580 183.03 601.8 183.03 612.7 164.15 601.8 145.28" fill="#fff" stroke="#231f20" stroke-miterlimit="10" stroke-width="4"/><polygon points="645.4 145.28 623.6 145.28 612.7 164.15 623.6 183.03 645.4 183.03 656.3 164.15 645.4 145.28" fill="#fff" stroke="#231f20" stroke-miterlimit="10" stroke-width="4"/><polygon points="689 145.28 667.2 145.28 656.3 164.15 667.2 183.03 689 183.03 699.9 164.15 689 145.28" fill="#fff" stroke="#231f20" stroke-miterlimit="10" stroke-width="4"/><polygon points="383.81 193.03 362.01 193.03 351.11 211.91 362.01 230.79 383.81 230.79 394.7 211.91 383.81 193.03" fill="#fff" stroke="#231f20" stroke-miterlimit="10" stroke-width="4"/><polygon points="427.4 193.03 405.61 193.03 394.7 211.91 405.61 230.79 427.4 230.79 438.31 211.91 427.4 193.03" fill="#fff" stroke="#231f20" stroke-miterlimit="10" stroke-width="4"/><polygon points="471 193.03 449.2 193.03 438.31 211.91 449.2 230.79 471 230.79 481.9 211.91 471 193.03" fill="#fff" stroke="#231f20" stroke-miterlimit="10" stroke-width="4"/><polygon points="514.6 193.03 492.8 193.03 481.9 211.91 492.8 230.79 514.6 230.79 525.5 211.91 514.6 193.03" fill="#fff" stroke="#ffde17" stroke-miterlimit="10" stroke-width="4"/><polygon points="558.2 193.03 536.4 193.03 525.5 211.91 536.4 230.79 558.2 230.79 569.1 211.91 558.2 193.03" fill="#fff" stroke="#231f20" stroke-miterlimit="10" stroke-width="4"/><polygon points="601.8 193.03 580 193.03 569.1 211.91 580 230.79 601.8 230.79 612.7 211.91 601.8 193.03" fill="#fff" stroke="#231f20" stroke-miterlimit="10" stroke-width="4"/><polygon points="645.4 193.03 623.6 193.03 612.7 211.91 623.6 230.79 645.4 230.79 656.3 211.91 645.4 193.03" fill="#fff" stroke="#231f20" stroke-miterlimit="10" stroke-width="4"/><polygon points="689 193.03 667.2 193.03 656.3 211.91 667.2 230.79 689 230.79 699.9 211.91 689 193.03" fill="#fff" stroke="#231f20" stroke-miterlimit="10" stroke-width="4"/><polygon points="383.81 240.79 362.01 240.79 351.11 259.67 362.01 278.55 383.81 278.55 394.7 259.67 383.81 240.79" fill="#fff" stroke="#231f20" stroke-miterlimit="10" stroke-width="4"/><polygon points="427.4 240.79 405.61 240.79 394.7 259.67 405.61 278.55 427.4 278.55 438.31 259.67 427.4 240.79" fill="#fff" stroke="#231f20" stroke-miterlimit="10" stroke-width="4"/><polygon points="471 240.79 449.2 240.79 438.31 259.67 449.2 278.55 471 278.55 481.9 259.67 471 240.79" fill="#fff" stroke="#231f20" stroke-miterlimit="10" stroke-width="4"/><polygon points="514.6 240.79 492.8 240.79 481.9 259.67 492.8 278.55 514.6 278.55 525.5 259.67 514.6 240.79" fill="#fff" stroke="#231f20" stroke-miterlimit="10" stroke-width="4"/><polygon points="558.2 240.79 536.4 240.79 525.5 259.67 536.4 278.55 558.2 278.55 569.1 259.67 558.2 240.79" fill="#fff" stroke="#ffde17" stroke-miterlimit="10" stroke-width="4"/><polygon points="601.8 240.79 580 240.79 569.1 259.67 580 278.55 601.8 278.55 612.7 259.67 601.8 240.79" fill="#fff" stroke="#231f20" stroke-miterlimit="10" stroke-width="4"/><polygon points="645.4 240.79 623.6 240.79 612.7 259.67 623.6 278.55 645.4 278.55 656.3 259.67 645.4 240.79" fill="#fff" stroke="#231f20" stroke-miterlimit="10" stroke-width="4"/><polygon points="689 240.79 667.2 240.79 656.3 259.67 667.2 278.55 689 278.55 699.9 259.67 689 240.79" fill="#fff" stroke="#231f20" stroke-miterlimit="10" stroke-width="4"/><polygon points="383.81 288.55 362.01 288.55 351.11 307.43 362.01 326.31 383.81 326.31 394.7 307.43 383.81 288.55" fill="#fff" stroke="#231f20" stroke-miterlimit="10" stroke-width="4"/><polygon points="427.4 288.55 405.61 288.55 394.7 307.43 405.61 326.31 427.4 326.31 438.31 307.43 427.4 288.55" fill="#fff" stroke="#231f20" stroke-miterlimit="10" stroke-width="4"/><polygon points="471 288.55 449.2 288.55 438.31 307.43 449.2 326.31 471 326.31 481.9 307.43 471 288.55" fill="#fff" stroke="#231f20" stroke-miterlimit="10" stroke-width="4"/><polygon points="514.6 288.55 492.8 288.55 481.9 307.43 492.8 326.31 514.6 326.31 525.5 307.43 514.6 288.55" fill="#fff" stroke="#231f20" stroke-miterlimit="10" stroke-width="4"/><polygon points="558.2 288.55 536.4 288.55 525.5 307.43 536.4 326.31 558.2 326.31 569.1 307.43 558.2 288.55" fill="#fff" stroke="#231f20" stroke-miterlimit="10" stroke-width="4"/><polygon points="601.8 288.55 580 288.55 569.1 307.43 580 326.31 601.8 326.31 612.7 307.43 601.8 288.55" fill="#fff" stroke="#231f20" stroke-miterlimit="10" stroke-width="4"/><polygon points="645.4 288.55 623.6 288.55 612.7 307.43 623.6 326.31 645.4 326.31 656.3 307.43 645.4 288.55" fill="#fff" stroke="#231f20" stroke-miterlimit="10" stroke-width="4"/><polygon points="689 288.55 667.2 288.55 656.3 307.43 667.2 326.31 689 326.31 699.9 307.43 689 288.55" fill="#fff" stroke="#231f20" stroke-miterlimit="10" stroke-width="4"/><polygon points="383.81 336.31 362.01 336.31 351.11 355.19 362.01 374.07 383.81 374.07 394.7 355.19 383.81 336.31" fill="#fff" stroke="#231f20" stroke-miterlimit="10" stroke-width="4"/><polygon points="427.4 336.31 405.61 336.31 394.7 355.19 405.61 374.07 427.4 374.07 438.31 355.19 427.4 336.31" fill="#fff" stroke="#231f20" stroke-miterlimit="10" stroke-width="4"/><polygon points="471 336.31 449.2 336.31 438.31 355.19 449.2 374.07 471 374.07 481.9 355.19 471 336.31" fill="#fff" stroke="#231f20" stroke-miterlimit="10" stroke-width="4"/><polygon points="514.6 336.31 492.8 336.31 481.9 355.19 492.8 374.07 514.6 374.07 525.5 355.19 514.6 336.31" fill="#fff" stroke="#231f20" stroke-miterlimit="10" stroke-width="4"/><polygon points="558.2 336.31 536.4 336.31 525.5 355.19 536.4 374.07 558.2 374.07 569.1 355.19 558.2 336.31" fill="#fff" stroke="#231f20" stroke-miterlimit="10" stroke-width="4"/><polygon points="601.8 336.31 580 336.31 569.1 355.19 580 374.07 601.8 374.07 612.7 355.19 601.8 336.31" fill="#fff" stroke="#231f20" stroke-miterlimit="10" stroke-width="4"/><polygon points="645.4 336.31 623.6 336.31 612.7 355.19 623.6 374.07 645.4 374.07 656.3 355.19 645.4 336.31" fill="#fff" stroke="#231f20" stroke-miterlimit="10" stroke-width="4"/><polygon points="689 336.31 667.2 336.31 656.3 355.19 667.2 374.07 689 374.07 699.9 355.19 689 336.31" fill="#fff" stroke="#231f20" stroke-miterlimit="10" stroke-width="4"/></svg>