<svg id="Layer_1" data-name="Layer 1" xmlns="http://www.w3.org/2000/svg" viewBox="0 0 349.95 373.07"><defs><style>.cls-1{fill:#fff;stroke:#231f20;stroke-miterlimit:10;}</style></defs><title>SVGTest</title><polygon class="cls-1" points="33.28 0.5 11.48 0.5 0.58 19.38 11.48 38.26 33.28 38.26 44.18 19.38 33.28 0.5"/><polygon class="cls-1" points="76.88 0.5 55.08 0.5 44.18 19.38 55.08 38.26 76.88 38.26 87.78 19.38 76.88 0.5"/><polygon class="cls-1" points="120.48 0.5 98.68 0.5 87.78 19.38 98.68 38.26 120.48 38.26 131.38 19.38 120.48 0.5"/><polygon class="cls-1" points="164.08 0.5 142.28 0.5 131.38 19.38 142.28 38.26 164.08 38.26 174.97 19.38 164.08 0.5"/><polygon class="cls-1" points="207.68 0.5 185.88 0.5 174.97 19.38 185.88 38.26 207.68 38.26 218.57 19.38 207.68 0.5"/><polygon class="cls-1" points="251.28 0.5 229.47 0.5 218.57 19.38 229.47 38.26 251.28 38.26 262.18 19.38 251.28 0.5"/><polygon class="cls-1" points="294.87 0.5 273.07 0.5 262.18 19.38 273.07 38.26 294.87 38.26 305.77 19.38 294.87 0.5"/><polygon class="cls-1" points="338.47 0.5 316.67 0.5 305.77 19.38 316.67 38.26 338.47 38.26 349.37 19.38 338.47 0.5"/><polygon class="cls-1" points="33.28 48.26 11.48 48.26 0.58 67.14 11.48 86.02 33.28 86.02 44.18 67.14 33.28 48.26"/><polygon class="cls-1" points="76.88 48.26 55.08 48.26 44.18 67.14 55.08 86.02 76.88 86.02 87.78 67.14 76.88 48.26"/><polygon class="cls-1" points="120.48 48.26 98.68 48.26 87.78 67.14 98.68 86.02 120.48 86.02 131.38 67.14 120.48 48.26"/><polygon class="cls-1" points="164.08 48.26 142.28 48.26 131.38 67.14 142.28 86.02 164.08 86.02 174.97 67.14 164.08 48.26"/><polygon class="cls-1" points="207.68 48.26 185.88 48.26 174.97 67.14 185.88 86.02 207.68 86.02 218.57 67.14 207.68 48.26"/><polygon class="cls-1" points="251.28 48.26 229.47 48.26 218.57 67.14 229.47 86.02 251.28 86.02 262.18 67.14 251.28 48.26"/><polygon class="cls-1" points="294.87 48.26 273.07 48.26 262.18 67.14 273.07 86.02 294.87 86.02 305.77 67.14 294.87 48.26"/><polygon class="cls-1" points="338.47 48.26 316.67 48.26 305.77 67.14 316.67 86.02 338.47 86.02 349.37 67.14 338.47 48.26"/><polygon class="cls-1" points="33.28 96.02 11.48 96.02 0.58 114.9 11.48 133.78 33.28 133.78 44.18 114.9 33.28 96.02"/><polygon class="cls-1" points="76.88 96.02 55.08 96.02 44.18 114.9 55.08 133.78 76.88 133.78 87.78 114.9 76.88 96.02"/><polygon class="cls-1" points="120.48 96.02 98.68 96.02 87.78 114.9 98.68 133.78 120.48 133.78 131.38 114.9 120.48 96.02"/><polygon class="cls-1" points="164.08 96.02 142.28 96.02 131.38 114.9 142.28 133.78 164.08 133.78 174.97 114.9 164.08 96.02"/><polygon class="cls-1" points="207.68 96.02 185.88 96.02 174.97 114.9 185.88 133.78 207.68 133.78 218.57 114.9 207.68 96.02"/><polygon class="cls-1" points="251.28 96.02 229.47 96.02 218.57 114.9 229.47 133.78 251.28 133.78 262.18 114.9 251.28 96.02"/><polygon class="cls-1" points="294.87 96.02 273.07 96.02 262.18 114.9 273.07 133.78 294.87 133.78 305.77 114.9 294.87 96.02"/><polygon class="cls-1" points="338.47 96.02 316.67 96.02 305.77 114.9 316.67 133.78 338.47 133.78 349.37 114.9 338.47 96.02"/><polygon class="cls-1" points="33.28 143.78 11.48 143.78 0.58 162.65 11.48 181.53 33.28 181.53 44.18 162.65 33.28 143.78"/><polygon class="cls-1" points="76.88 143.78 55.08 143.78 44.18 162.65 55.08 181.53 76.88 181.53 87.78 162.65 76.88 143.78"/><polygon class="cls-1" points="120.48 143.78 98.68 143.78 87.78 162.65 98.68 181.53 120.48 181.53 131.38 162.65 120.48 143.78"/><polygon class="cls-1" points="164.08 143.78 142.28 143.78 131.38 162.65 142.28 181.53 164.08 181.53 174.97 162.65 164.08 143.78"/><polygon class="cls-1" points="207.68 143.78 185.88 143.78 174.97 162.65 185.88 181.53 207.68 181.53 218.57 162.65 207.68 143.78"/><polygon class="cls-1" points="251.28 143.78 229.47 143.78 218.57 162.65 229.47 181.53 251.28 181.53 262.18 162.65 251.28 143.78"/><polygon class="cls-1" points="294.87 143.78 273.07 143.78 262.18 162.65 273.07 181.53 294.87 181.53 305.77 162.65 294.87 143.78"/><polygon class="cls-1" points="338.47 143.78 316.67 143.78 305.77 162.65 316.67 181.53 338.47 181.53 349.37 162.65 338.47 143.78"/><polygon class="cls-1" points="33.28 191.53 11.48 191.53 0.58 210.41 11.48 229.29 33.28 229.29 44.18 210.41 33.28 191.53"/><polygon class="cls-1" points="76.88 191.53 55.08 191.53 44.18 210.41 55.08 229.29 76.88 229.29 87.78 210.41 76.88 191.53"/><polygon class="cls-1" points="120.48 191.53 98.68 191.53 87.78 210.41 98.68 229.29 120.48 229.29 131.38 210.41 120.48 191.53"/><polygon class="cls-1" points="164.08 191.53 142.28 191.53 131.38 210.41 142.28 229.29 164.08 229.29 174.97 210.41 164.08 191.53"/><polygon class="cls-1" points="207.68 191.53 185.88 191.53 174.97 210.41 185.88 229.29 207.68 229.29 218.57 210.41 207.68 191.53"/><polygon class="cls-1" points="251.28 191.53 229.47 191.53 218.57 210.41 229.47 229.29 251.28 229.29 262.18 210.41 251.28 191.53"/><polygon class="cls-1" points="294.87 191.53 273.07 191.53 262.18 210.41 273.07 229.29 294.87 229.29 305.77 210.41 294.87 191.53"/><polygon class="cls-1" points="338.47 191.53 316.67 191.53 305.77 210.41 316.67 229.29 338.47 229.29 349.37 210.41 338.47 191.53"/><polygon class="cls-1" points="33.28 239.29 11.48 239.29 0.58 258.17 11.48 277.05 33.28 277.05 44.18 258.17 33.28 239.29"/><polygon class="cls-1" points="76.88 239.29 55.08 239.29 44.18 258.17 55.08 277.05 76.88 277.05 87.78 258.17 76.88 239.29"/><polygon class="cls-1" points="120.48 239.29 98.68 239.29 87.78 258.17 98.68 277.05 120.48 277.05 131.38 258.17 120.48 239.29"/><polygon class="cls-1" points="164.08 239.29 142.28 239.29 131.38 258.17 142.28 277.05 164.08 277.05 174.97 258.17 164.08 239.29"/><polygon class="cls-1" points="207.68 239.29 185.88 239.29 174.97 258.17 185.88 277.05 207.68 277.05 218.57 258.17 207.68 239.29"/><polygon class="cls-1" points="251.28 239.29 229.47 239.29 218.57 258.17 229.47 277.05 251.28 277.05 262.18 258.17 251.28 239.29"/><polygon class="cls-1" points="294.87 239.29 273.07 239.29 262.18 258.17 273.07 277.05 294.87 277.05 305.77 258.17 294.87 239.29"/><polygon class="cls-1" points="338.47 239.29 316.67 239.29 305.77 258.17 316.67 277.05 338.47 277.05 349.37 258.17 338.47 239.29"/><polygon class="cls-1" points="33.28 287.05 11.48 287.05 0.58 305.93 11.48 324.81 33.28 324.81 44.18 305.93 33.28 287.05"/><polygon class="cls-1" points="76.88 287.05 55.08 287.05 44.18 305.93 55.08 324.81 76.88 324.81 87.78 305.93 76.88 287.05"/><polygon class="cls-1" points="120.48 287.05 98.68 287.05 87.78 305.93 98.68 324.81 120.48 324.81 131.38 305.93 120.48 287.05"/><polygon class="cls-1" points="164.08 287.05 142.28 287.05 131.38 305.93 142.28 324.81 164.08 324.81 174.97 305.93 164.08 287.05"/><polygon class="cls-1" points="207.68 287.05 185.88 287.05 174.97 305.93 185.88 324.81 207.68 324.81 218.57 305.93 207.68 287.05"/><polygon class="cls-1" points="251.28 287.05 229.47 287.05 218.57 305.93 229.47 324.81 251.28 324.81 262.18 305.93 251.28 287.05"/><polygon class="cls-1" points="294.87 287.05 273.07 287.05 262.18 305.93 273.07 324.81 294.87 324.81 305.77 305.93 294.87 287.05"/><polygon class="cls-1" points="338.47 287.05 316.67 287.05 305.77 305.93 316.67 324.81 338.47 324.81 349.37 305.93 338.47 287.05"/><polygon class="cls-1" points="33.28 334.81 11.48 334.81 0.58 353.69 11.48 372.57 33.28 372.57 44.18 353.69 33.28 334.81"/><polygon class="cls-1" points="76.88 334.81 55.08 334.81 44.18 353.69 55.08 372.57 76.88 372.57 87.78 353.69 76.88 334.81"/><polygon class="cls-1" points="120.48 334.81 98.68 334.81 87.78 353.69 98.68 372.57 120.48 372.57 131.38 353.69 120.48 334.81"/><polygon class="cls-1" points="164.08 334.81 142.28 334.81 131.38 353.69 142.28 372.57 164.08 372.57 174.97 353.69 164.08 334.81"/><polygon class="cls-1" points="207.68 334.81 185.88 334.81 174.97 353.69 185.88 372.57 207.68 372.57 218.57 353.69 207.68 334.81"/><polygon class="cls-1" points="251.28 334.81 229.47 334.81 218.57 353.69 229.47 372.57 251.28 372.57 262.18 353.69 251.28 334.81"/><polygon class="cls-1" points="294.87 334.81 273.07 334.81 262.18 353.69 273.07 372.57 294.87 372.57 305.77 353.69 294.87 334.81"/><polygon class="cls-1" points="338.47 334.81 316.67 334.81 305.77 353.69 316.67 372.57 338.47 372.57 349.37 353.69 338.47 334.81"/></svg>